<mxfile host="www.draw.io" modified="2019-12-04T03:23:24.471Z" agent="Mozilla/5.0 (Macintosh; Intel Mac OS X 10_14_6) AppleWebKit/605.1.15 (KHTML, like Gecko) Version/12.1.2 Safari/605.1.15" etag="IX3-qnf0uWphjpCbosCL" version="12.3.6" type="github" pages="5">
  <diagram id="0_-RG9WZWpa4WUwme8Ic" name="第 1 页">
    <mxGraphModel dx="898" dy="639" grid="1" gridSize="10" guides="1" tooltips="1" connect="1" arrows="1" fold="1" page="1" pageScale="1" pageWidth="827" pageHeight="1169" math="0" shadow="0">
      <root>
        <mxCell id="0"/>
        <mxCell id="1" parent="0"/>
        <mxCell id="_WDStatLzBCsml0k4qIH-1" value="&lt;font style=&quot;font-size: 20px&quot;&gt;&lt;b&gt;APP&lt;/b&gt;&lt;/font&gt;" style="rounded=1;whiteSpace=wrap;html=1;fillColor=#ffe6cc;strokeColor=#d79b00;" parent="1" vertex="1">
          <mxGeometry x="270" y="10" width="120" height="60" as="geometry"/>
        </mxCell>
        <mxCell id="_WDStatLzBCsml0k4qIH-2" value="&lt;font style=&quot;font-size: 15px&quot;&gt;VPNModule&lt;/font&gt;" style="rounded=1;whiteSpace=wrap;html=1;fillColor=#d5e8d4;strokeColor=#82b366;" parent="1" vertex="1">
          <mxGeometry x="270" y="150" width="120" height="60" as="geometry"/>
        </mxCell>
        <mxCell id="_WDStatLzBCsml0k4qIH-6" value="&lt;font style=&quot;font-size: 15px&quot;&gt;UserModule&lt;/font&gt;" style="rounded=1;whiteSpace=wrap;html=1;fillColor=#fad7ac;strokeColor=#b46504;" parent="1" vertex="1">
          <mxGeometry x="180" y="260" width="120" height="60" as="geometry"/>
        </mxCell>
        <mxCell id="_WDStatLzBCsml0k4qIH-7" value="&lt;font style=&quot;font-size: 15px&quot;&gt;StatisticModule&lt;/font&gt;" style="rounded=1;whiteSpace=wrap;html=1;fillColor=#b0e3e6;strokeColor=#0e8088;" parent="1" vertex="1">
          <mxGeometry x="90" y="480" width="120" height="60" as="geometry"/>
        </mxCell>
        <mxCell id="_WDStatLzBCsml0k4qIH-8" value="&lt;font style=&quot;font-size: 15px&quot;&gt;PurchaseModule&lt;/font&gt;" style="rounded=1;whiteSpace=wrap;html=1;fillColor=#dae8fc;strokeColor=#6c8ebf;" parent="1" vertex="1">
          <mxGeometry x="80" y="150" width="140" height="60" as="geometry"/>
        </mxCell>
        <mxCell id="_WDStatLzBCsml0k4qIH-9" value="&lt;font style=&quot;font-size: 15px&quot;&gt;ADModule&lt;/font&gt;" style="rounded=1;whiteSpace=wrap;html=1;fillColor=#fff2cc;strokeColor=#d6b656;" parent="1" vertex="1">
          <mxGeometry x="430" y="150" width="120" height="60" as="geometry"/>
        </mxCell>
        <mxCell id="_WDStatLzBCsml0k4qIH-10" value="&lt;div style=&quot;text-align: left&quot;&gt;&lt;span style=&quot;font-size: 15px&quot;&gt;FeedModule&lt;/span&gt;&lt;/div&gt;&lt;font style=&quot;font-size: 15px&quot;&gt;&lt;div style=&quot;text-align: left&quot;&gt;RatingModule&lt;/div&gt;&lt;div style=&quot;text-align: left&quot;&gt;BrowserModule&lt;/div&gt;&lt;div style=&quot;text-align: left&quot;&gt;ShareModule&lt;/div&gt;&lt;/font&gt;" style="rounded=1;whiteSpace=wrap;html=1;fillColor=#e1d5e7;strokeColor=#9673a6;" parent="1" vertex="1">
          <mxGeometry x="600" y="150" width="160" height="100" as="geometry"/>
        </mxCell>
        <mxCell id="_WDStatLzBCsml0k4qIH-11" value="&lt;font style=&quot;font-size: 15px&quot;&gt;NetworkModule&lt;/font&gt;" style="rounded=1;whiteSpace=wrap;html=1;fillColor=#fad9d5;strokeColor=#ae4132;" parent="1" vertex="1">
          <mxGeometry x="180" y="365" width="120" height="60" as="geometry"/>
        </mxCell>
        <mxCell id="_WDStatLzBCsml0k4qIH-12" value="&lt;font style=&quot;font-size: 15px&quot;&gt;CommonModule&lt;/font&gt;" style="rounded=1;whiteSpace=wrap;html=1;fillColor=#d0cee2;strokeColor=#56517e;" parent="1" vertex="1">
          <mxGeometry x="270" y="480" width="120" height="60" as="geometry"/>
        </mxCell>
        <mxCell id="_WDStatLzBCsml0k4qIH-13" value="&lt;font style=&quot;font-size: 15px&quot;&gt;ConfigModule&lt;/font&gt;" style="rounded=1;whiteSpace=wrap;html=1;fillColor=#b1ddf0;strokeColor=#10739e;" parent="1" vertex="1">
          <mxGeometry x="353" y="365" width="120" height="60" as="geometry"/>
        </mxCell>
        <mxCell id="_WDStatLzBCsml0k4qIH-14" value="" style="endArrow=classic;html=1;exitX=0.5;exitY=1;exitDx=0;exitDy=0;entryX=0.5;entryY=0;entryDx=0;entryDy=0;" parent="1" source="_WDStatLzBCsml0k4qIH-1" target="_WDStatLzBCsml0k4qIH-8" edge="1">
          <mxGeometry width="50" height="50" relative="1" as="geometry">
            <mxPoint x="80" y="610" as="sourcePoint"/>
            <mxPoint x="130" y="560" as="targetPoint"/>
          </mxGeometry>
        </mxCell>
        <mxCell id="_WDStatLzBCsml0k4qIH-17" value="" style="endArrow=classic;html=1;exitX=0.5;exitY=1;exitDx=0;exitDy=0;entryX=0.5;entryY=0;entryDx=0;entryDy=0;" parent="1" source="_WDStatLzBCsml0k4qIH-1" target="_WDStatLzBCsml0k4qIH-2" edge="1">
          <mxGeometry width="50" height="50" relative="1" as="geometry">
            <mxPoint x="340" y="110" as="sourcePoint"/>
            <mxPoint x="160" y="160" as="targetPoint"/>
          </mxGeometry>
        </mxCell>
        <mxCell id="_WDStatLzBCsml0k4qIH-18" value="" style="endArrow=classic;html=1;entryX=0.5;entryY=0;entryDx=0;entryDy=0;" parent="1" target="_WDStatLzBCsml0k4qIH-9" edge="1">
          <mxGeometry width="50" height="50" relative="1" as="geometry">
            <mxPoint x="330" y="70" as="sourcePoint"/>
            <mxPoint x="170" y="170" as="targetPoint"/>
          </mxGeometry>
        </mxCell>
        <mxCell id="_WDStatLzBCsml0k4qIH-19" value="" style="endArrow=classic;html=1;exitX=0.5;exitY=1;exitDx=0;exitDy=0;entryX=0.5;entryY=0;entryDx=0;entryDy=0;" parent="1" target="_WDStatLzBCsml0k4qIH-6" edge="1">
          <mxGeometry width="50" height="50" relative="1" as="geometry">
            <mxPoint x="330" y="210" as="sourcePoint"/>
            <mxPoint x="150" y="260" as="targetPoint"/>
          </mxGeometry>
        </mxCell>
        <mxCell id="_WDStatLzBCsml0k4qIH-20" value="" style="endArrow=classic;html=1;exitX=0.5;exitY=1;exitDx=0;exitDy=0;" parent="1" source="_WDStatLzBCsml0k4qIH-8" edge="1">
          <mxGeometry width="50" height="50" relative="1" as="geometry">
            <mxPoint x="370" y="140" as="sourcePoint"/>
            <mxPoint x="240" y="260" as="targetPoint"/>
          </mxGeometry>
        </mxCell>
        <mxCell id="_WDStatLzBCsml0k4qIH-21" value="" style="endArrow=classic;html=1;exitX=0.5;exitY=1;exitDx=0;exitDy=0;entryX=0.5;entryY=0;entryDx=0;entryDy=0;" parent="1" source="_WDStatLzBCsml0k4qIH-9" target="_WDStatLzBCsml0k4qIH-13" edge="1">
          <mxGeometry width="50" height="50" relative="1" as="geometry">
            <mxPoint x="380" y="150" as="sourcePoint"/>
            <mxPoint x="420" y="360" as="targetPoint"/>
          </mxGeometry>
        </mxCell>
        <mxCell id="_WDStatLzBCsml0k4qIH-22" value="" style="endArrow=classic;html=1;exitX=0.5;exitY=1;exitDx=0;exitDy=0;entryX=0.5;entryY=0;entryDx=0;entryDy=0;" parent="1" source="_WDStatLzBCsml0k4qIH-2" target="_WDStatLzBCsml0k4qIH-13" edge="1">
          <mxGeometry width="50" height="50" relative="1" as="geometry">
            <mxPoint x="390" y="160" as="sourcePoint"/>
            <mxPoint x="210" y="210" as="targetPoint"/>
          </mxGeometry>
        </mxCell>
        <mxCell id="_WDStatLzBCsml0k4qIH-23" value="" style="endArrow=classic;html=1;exitX=0.5;exitY=1;exitDx=0;exitDy=0;entryX=0.5;entryY=0;entryDx=0;entryDy=0;" parent="1" source="_WDStatLzBCsml0k4qIH-6" target="_WDStatLzBCsml0k4qIH-11" edge="1">
          <mxGeometry width="50" height="50" relative="1" as="geometry">
            <mxPoint x="400" y="170" as="sourcePoint"/>
            <mxPoint x="220" y="220" as="targetPoint"/>
          </mxGeometry>
        </mxCell>
        <mxCell id="_WDStatLzBCsml0k4qIH-24" value="" style="endArrow=classic;html=1;entryX=0.5;entryY=0;entryDx=0;entryDy=0;exitX=0.5;exitY=1;exitDx=0;exitDy=0;" parent="1" source="_WDStatLzBCsml0k4qIH-11" target="_WDStatLzBCsml0k4qIH-7" edge="1">
          <mxGeometry width="50" height="50" relative="1" as="geometry">
            <mxPoint x="410" y="180" as="sourcePoint"/>
            <mxPoint x="230" y="230" as="targetPoint"/>
          </mxGeometry>
        </mxCell>
        <mxCell id="_WDStatLzBCsml0k4qIH-25" value="" style="endArrow=classic;html=1;entryX=0.5;entryY=0;entryDx=0;entryDy=0;exitX=0.5;exitY=1;exitDx=0;exitDy=0;" parent="1" source="_WDStatLzBCsml0k4qIH-13" target="_WDStatLzBCsml0k4qIH-12" edge="1">
          <mxGeometry width="50" height="50" relative="1" as="geometry">
            <mxPoint x="413" y="430" as="sourcePoint"/>
            <mxPoint x="240" y="240" as="targetPoint"/>
          </mxGeometry>
        </mxCell>
        <mxCell id="_WDStatLzBCsml0k4qIH-27" value="" style="endArrow=classic;html=1;entryX=0.5;entryY=0;entryDx=0;entryDy=0;" parent="1" target="_WDStatLzBCsml0k4qIH-10" edge="1">
          <mxGeometry width="50" height="50" relative="1" as="geometry">
            <mxPoint x="330" y="70" as="sourcePoint"/>
            <mxPoint x="680" y="118" as="targetPoint"/>
          </mxGeometry>
        </mxCell>
        <mxCell id="_WDStatLzBCsml0k4qIH-29" value="" style="endArrow=classic;html=1;entryX=0.5;entryY=0;entryDx=0;entryDy=0;exitX=0.5;exitY=1;exitDx=0;exitDy=0;" parent="1" source="_WDStatLzBCsml0k4qIH-11" target="_WDStatLzBCsml0k4qIH-12" edge="1">
          <mxGeometry width="50" height="50" relative="1" as="geometry">
            <mxPoint x="250" y="435" as="sourcePoint"/>
            <mxPoint x="250" y="490" as="targetPoint"/>
          </mxGeometry>
        </mxCell>
      </root>
    </mxGraphModel>
  </diagram>
  <diagram id="L5gmijqyqWDl88c4viBg" name="第 5 页">
    <mxGraphModel dx="898" dy="639" grid="1" gridSize="10" guides="1" tooltips="1" connect="1" arrows="1" fold="1" page="1" pageScale="1" pageWidth="827" pageHeight="1169" math="0" shadow="0">
      <root>
        <mxCell id="sSS42NUgIbLL8Pl0LBDS-0"/>
        <mxCell id="sSS42NUgIbLL8Pl0LBDS-1" parent="sSS42NUgIbLL8Pl0LBDS-0"/>
        <mxCell id="kdCsWSfj5PNSCzxzbbbc-0" value="&lt;font style=&quot;font-size: 15px&quot;&gt;VPNModule&lt;/font&gt;" style="rounded=1;whiteSpace=wrap;html=1;fillColor=#d5e8d4;strokeColor=#82b366;" parent="sSS42NUgIbLL8Pl0LBDS-1" vertex="1">
          <mxGeometry x="50" y="110" width="120" height="60" as="geometry"/>
        </mxCell>
        <mxCell id="kdCsWSfj5PNSCzxzbbbc-2" value="&lt;font style=&quot;font-size: 15px&quot;&gt;StatisticModule&lt;/font&gt;" style="rounded=1;whiteSpace=wrap;html=1;fillColor=#b0e3e6;strokeColor=#0e8088;" parent="sSS42NUgIbLL8Pl0LBDS-1" vertex="1">
          <mxGeometry x="50" y="475" width="120" height="60" as="geometry"/>
        </mxCell>
        <mxCell id="kdCsWSfj5PNSCzxzbbbc-3" value="&lt;font style=&quot;font-size: 15px&quot;&gt;PurchaseModule&lt;/font&gt;" style="rounded=1;whiteSpace=wrap;html=1;fillColor=#dae8fc;strokeColor=#6c8ebf;" parent="sSS42NUgIbLL8Pl0LBDS-1" vertex="1">
          <mxGeometry x="50" y="290" width="140" height="60" as="geometry"/>
        </mxCell>
        <mxCell id="kdCsWSfj5PNSCzxzbbbc-4" value="&lt;font style=&quot;font-size: 15px&quot;&gt;ADModule&lt;/font&gt;" style="rounded=1;whiteSpace=wrap;html=1;fillColor=#fff2cc;strokeColor=#d6b656;" parent="sSS42NUgIbLL8Pl0LBDS-1" vertex="1">
          <mxGeometry x="50" y="200" width="120" height="60" as="geometry"/>
        </mxCell>
        <mxCell id="kdCsWSfj5PNSCzxzbbbc-5" value="&lt;font style=&quot;font-size: 15px&quot;&gt;NetworkModule&lt;/font&gt;" style="rounded=1;whiteSpace=wrap;html=1;fillColor=#fad9d5;strokeColor=#ae4132;" parent="sSS42NUgIbLL8Pl0LBDS-1" vertex="1">
          <mxGeometry x="50" y="385" width="120" height="60" as="geometry"/>
        </mxCell>
        <mxCell id="kdCsWSfj5PNSCzxzbbbc-7" value="&lt;font style=&quot;font-size: 15px&quot;&gt;ConfigModule&lt;/font&gt;" style="rounded=1;whiteSpace=wrap;html=1;fillColor=#b1ddf0;strokeColor=#10739e;" parent="sSS42NUgIbLL8Pl0LBDS-1" vertex="1">
          <mxGeometry x="50" y="565" width="120" height="60" as="geometry"/>
        </mxCell>
        <mxCell id="kdCsWSfj5PNSCzxzbbbc-16" value="&lt;font style=&quot;font-size: 18px&quot;&gt;基于Rmstore，把vip的购买，恢复，校验等逻辑的封装&lt;/font&gt;" style="text;html=1;strokeColor=none;fillColor=none;align=left;verticalAlign=middle;whiteSpace=wrap;rounded=0;" parent="sSS42NUgIbLL8Pl0LBDS-1" vertex="1">
          <mxGeometry x="250" y="310" width="450" height="20" as="geometry"/>
        </mxCell>
        <mxCell id="kdCsWSfj5PNSCzxzbbbc-17" value="&lt;font style=&quot;font-size: 14px&quot;&gt;连接逻辑的封装，包括服务器列表拉取，构造，测试，排序，只能选择，和与系统api交互等逻辑，目前支持Ikev1，Ikev2，OpenVPN，OpenVPN混淆，Wiregurad，Simple obfs&lt;/font&gt;" style="text;html=1;strokeColor=none;fillColor=none;align=left;verticalAlign=middle;whiteSpace=wrap;rounded=0;" parent="sSS42NUgIbLL8Pl0LBDS-1" vertex="1">
          <mxGeometry x="243" y="100" width="390" height="80" as="geometry"/>
        </mxCell>
        <mxCell id="kdCsWSfj5PNSCzxzbbbc-18" value="&lt;font style=&quot;font-size: 16px&quot;&gt;Admob,Fackbook 原生，插屏，激励广告等&lt;/font&gt;" style="text;html=1;strokeColor=none;fillColor=none;align=left;verticalAlign=middle;whiteSpace=wrap;rounded=0;strokeWidth=5;" parent="sSS42NUgIbLL8Pl0LBDS-1" vertex="1">
          <mxGeometry x="243" y="200" width="340" height="80" as="geometry"/>
        </mxCell>
        <mxCell id="kdCsWSfj5PNSCzxzbbbc-19" value="&lt;font style=&quot;font-size: 16px&quot;&gt;基于AFNetwork的封装，加上数据的加密解密工鞥呢，与通用数据校验逻辑&lt;/font&gt;" style="text;html=1;strokeColor=none;fillColor=none;align=left;verticalAlign=middle;whiteSpace=wrap;rounded=0;" parent="sSS42NUgIbLL8Pl0LBDS-1" vertex="1">
          <mxGeometry x="250" y="375" width="390" height="80" as="geometry"/>
        </mxCell>
        <mxCell id="iY8HDpHFuAW_nuZfmW3a-0" value="&lt;font style=&quot;font-size: 15px&quot;&gt;UserModule&lt;/font&gt;" style="rounded=1;whiteSpace=wrap;html=1;fillColor=#fad7ac;strokeColor=#b46504;" parent="sSS42NUgIbLL8Pl0LBDS-1" vertex="1">
          <mxGeometry x="50" y="20" width="120" height="60" as="geometry"/>
        </mxCell>
        <mxCell id="iY8HDpHFuAW_nuZfmW3a-2" value="&lt;font size=&quot;3&quot;&gt;用户信息的封装，且作为大部分库的基础库，网络交互时需要通过该库，加上用户信息用于统计&lt;/font&gt;" style="text;html=1;strokeColor=none;fillColor=none;align=left;verticalAlign=middle;whiteSpace=wrap;rounded=0;strokeWidth=5;" parent="sSS42NUgIbLL8Pl0LBDS-1" vertex="1">
          <mxGeometry x="243" y="10" width="340" height="80" as="geometry"/>
        </mxCell>
        <mxCell id="iY8HDpHFuAW_nuZfmW3a-3" value="&lt;font size=&quot;3&quot;&gt;多个统计平台的封装，目前支持flurry，firebase，appflyer&lt;/font&gt;" style="text;html=1;strokeColor=none;fillColor=none;align=left;verticalAlign=middle;whiteSpace=wrap;rounded=0;" parent="sSS42NUgIbLL8Pl0LBDS-1" vertex="1">
          <mxGeometry x="250" y="465" width="390" height="80" as="geometry"/>
        </mxCell>
        <mxCell id="iY8HDpHFuAW_nuZfmW3a-4" value="&lt;font size=&quot;3&quot;&gt;基于firebase远程配置的封装&lt;/font&gt;" style="text;html=1;strokeColor=none;fillColor=none;align=left;verticalAlign=middle;whiteSpace=wrap;rounded=0;" parent="sSS42NUgIbLL8Pl0LBDS-1" vertex="1">
          <mxGeometry x="250" y="555" width="390" height="80" as="geometry"/>
        </mxCell>
      </root>
    </mxGraphModel>
  </diagram>
  <diagram id="XMUr2k0EB6VJS5Udn5uc" name="第 2 页">
    <mxGraphModel dx="898" dy="639" grid="1" gridSize="10" guides="1" tooltips="1" connect="1" arrows="1" fold="1" page="1" pageScale="1" pageWidth="827" pageHeight="1169" math="0" shadow="0">
      <root>
        <mxCell id="Xo2dGVH3GghoSWU75Hx_-0"/>
        <mxCell id="Xo2dGVH3GghoSWU75Hx_-1" parent="Xo2dGVH3GghoSWU75Hx_-0"/>
        <mxCell id="D-7F8pWzaV691JAyFjle-11" style="edgeStyle=orthogonalEdgeStyle;rounded=0;orthogonalLoop=1;jettySize=auto;html=1;exitX=0.5;exitY=1;exitDx=0;exitDy=0;exitPerimeter=0;" parent="Xo2dGVH3GghoSWU75Hx_-1" source="D-7F8pWzaV691JAyFjle-0" target="D-7F8pWzaV691JAyFjle-3" edge="1">
          <mxGeometry relative="1" as="geometry">
            <Array as="points">
              <mxPoint x="380" y="90"/>
              <mxPoint x="235" y="90"/>
            </Array>
          </mxGeometry>
        </mxCell>
        <mxCell id="D-7F8pWzaV691JAyFjle-13" style="edgeStyle=orthogonalEdgeStyle;rounded=0;orthogonalLoop=1;jettySize=auto;html=1;" parent="Xo2dGVH3GghoSWU75Hx_-1" target="D-7F8pWzaV691JAyFjle-2" edge="1">
          <mxGeometry relative="1" as="geometry">
            <mxPoint x="380" y="80" as="sourcePoint"/>
            <Array as="points">
              <mxPoint x="370" y="90"/>
              <mxPoint x="610" y="90"/>
            </Array>
          </mxGeometry>
        </mxCell>
        <mxCell id="D-7F8pWzaV691JAyFjle-16" style="edgeStyle=orthogonalEdgeStyle;rounded=0;orthogonalLoop=1;jettySize=auto;html=1;exitX=0.5;exitY=1;exitDx=0;exitDy=0;exitPerimeter=0;" parent="Xo2dGVH3GghoSWU75Hx_-1" source="D-7F8pWzaV691JAyFjle-0" target="D-7F8pWzaV691JAyFjle-4" edge="1">
          <mxGeometry relative="1" as="geometry">
            <mxPoint x="380" y="80" as="sourcePoint"/>
            <Array as="points">
              <mxPoint x="380" y="90"/>
              <mxPoint x="725" y="90"/>
            </Array>
          </mxGeometry>
        </mxCell>
        <mxCell id="D-7F8pWzaV691JAyFjle-31" style="edgeStyle=orthogonalEdgeStyle;rounded=0;orthogonalLoop=1;jettySize=auto;html=1;" parent="Xo2dGVH3GghoSWU75Hx_-1" source="D-7F8pWzaV691JAyFjle-0" target="D-7F8pWzaV691JAyFjle-5" edge="1">
          <mxGeometry relative="1" as="geometry">
            <Array as="points">
              <mxPoint x="380" y="90"/>
              <mxPoint x="90" y="90"/>
            </Array>
          </mxGeometry>
        </mxCell>
        <mxCell id="D-7F8pWzaV691JAyFjle-32" style="edgeStyle=orthogonalEdgeStyle;rounded=0;orthogonalLoop=1;jettySize=auto;html=1;entryX=0.5;entryY=0;entryDx=0;entryDy=0;" parent="Xo2dGVH3GghoSWU75Hx_-1" source="D-7F8pWzaV691JAyFjle-0" target="D-7F8pWzaV691JAyFjle-1" edge="1">
          <mxGeometry relative="1" as="geometry"/>
        </mxCell>
        <mxCell id="D-7F8pWzaV691JAyFjle-0" value="&lt;font style=&quot;font-size: 20px&quot;&gt;&lt;b&gt;App Start&lt;/b&gt;&lt;/font&gt;" style="strokeWidth=2;html=1;shape=mxgraph.flowchart.start_1;whiteSpace=wrap;" parent="Xo2dGVH3GghoSWU75Hx_-1" vertex="1">
          <mxGeometry x="300" y="10" width="160" height="60" as="geometry"/>
        </mxCell>
        <mxCell id="D-7F8pWzaV691JAyFjle-28" style="edgeStyle=orthogonalEdgeStyle;rounded=0;orthogonalLoop=1;jettySize=auto;html=1;entryX=0.5;entryY=0;entryDx=0;entryDy=0;" parent="Xo2dGVH3GghoSWU75Hx_-1" source="D-7F8pWzaV691JAyFjle-1" target="D-7F8pWzaV691JAyFjle-27" edge="1">
          <mxGeometry relative="1" as="geometry"/>
        </mxCell>
        <mxCell id="D-7F8pWzaV691JAyFjle-1" value="初始化User，启动激活流程，收集用户信息（国家运营商等）" style="rounded=0;whiteSpace=wrap;html=1;" parent="Xo2dGVH3GghoSWU75Hx_-1" vertex="1">
          <mxGeometry x="330" y="120" width="100" height="60" as="geometry"/>
        </mxCell>
        <mxCell id="D-7F8pWzaV691JAyFjle-34" style="edgeStyle=orthogonalEdgeStyle;rounded=0;orthogonalLoop=1;jettySize=auto;html=1;entryX=0.5;entryY=0;entryDx=0;entryDy=0;" parent="Xo2dGVH3GghoSWU75Hx_-1" source="D-7F8pWzaV691JAyFjle-2" target="D-7F8pWzaV691JAyFjle-33" edge="1">
          <mxGeometry relative="1" as="geometry"/>
        </mxCell>
        <mxCell id="D-7F8pWzaV691JAyFjle-2" value="初始化VPN模块，根据国家拉取服务器列表" style="rounded=0;whiteSpace=wrap;html=1;" parent="Xo2dGVH3GghoSWU75Hx_-1" vertex="1">
          <mxGeometry x="480" y="120" width="120" height="60" as="geometry"/>
        </mxCell>
        <mxCell id="D-7F8pWzaV691JAyFjle-22" style="edgeStyle=orthogonalEdgeStyle;rounded=0;orthogonalLoop=1;jettySize=auto;html=1;entryX=0.5;entryY=0;entryDx=0;entryDy=0;" parent="Xo2dGVH3GghoSWU75Hx_-1" source="D-7F8pWzaV691JAyFjle-3" target="D-7F8pWzaV691JAyFjle-18" edge="1">
          <mxGeometry relative="1" as="geometry"/>
        </mxCell>
        <mxCell id="D-7F8pWzaV691JAyFjle-3" value="初始化Purchase模块，向苹果请求商品信息" style="rounded=0;whiteSpace=wrap;html=1;" parent="Xo2dGVH3GghoSWU75Hx_-1" vertex="1">
          <mxGeometry x="170" y="120" width="130" height="60" as="geometry"/>
        </mxCell>
        <mxCell id="D-7F8pWzaV691JAyFjle-23" style="edgeStyle=orthogonalEdgeStyle;rounded=0;orthogonalLoop=1;jettySize=auto;html=1;entryX=0.5;entryY=0;entryDx=0;entryDy=0;" parent="Xo2dGVH3GghoSWU75Hx_-1" source="D-7F8pWzaV691JAyFjle-4" target="D-7F8pWzaV691JAyFjle-19" edge="1">
          <mxGeometry relative="1" as="geometry"/>
        </mxCell>
        <mxCell id="D-7F8pWzaV691JAyFjle-24" style="edgeStyle=orthogonalEdgeStyle;rounded=0;orthogonalLoop=1;jettySize=auto;html=1;" parent="Xo2dGVH3GghoSWU75Hx_-1" source="D-7F8pWzaV691JAyFjle-4" target="D-7F8pWzaV691JAyFjle-20" edge="1">
          <mxGeometry relative="1" as="geometry"/>
        </mxCell>
        <mxCell id="D-7F8pWzaV691JAyFjle-4" value="初始化AD模块，按配置拉取广告" style="rounded=0;whiteSpace=wrap;html=1;" parent="Xo2dGVH3GghoSWU75Hx_-1" vertex="1">
          <mxGeometry x="670" y="120" width="110" height="60" as="geometry"/>
        </mxCell>
        <mxCell id="D-7F8pWzaV691JAyFjle-21" style="edgeStyle=orthogonalEdgeStyle;rounded=0;orthogonalLoop=1;jettySize=auto;html=1;entryX=0.5;entryY=0;entryDx=0;entryDy=0;" parent="Xo2dGVH3GghoSWU75Hx_-1" source="D-7F8pWzaV691JAyFjle-5" target="D-7F8pWzaV691JAyFjle-17" edge="1">
          <mxGeometry relative="1" as="geometry"/>
        </mxCell>
        <mxCell id="D-7F8pWzaV691JAyFjle-5" value="初始化config模块,向firebase拉取配置" style="rounded=0;whiteSpace=wrap;html=1;" parent="Xo2dGVH3GghoSWU75Hx_-1" vertex="1">
          <mxGeometry x="30" y="120" width="120" height="60" as="geometry"/>
        </mxCell>
        <mxCell id="D-7F8pWzaV691JAyFjle-17" value="Firebase" style="shape=cylinder;whiteSpace=wrap;html=1;boundedLbl=1;backgroundOutline=1;" parent="Xo2dGVH3GghoSWU75Hx_-1" vertex="1">
          <mxGeometry x="60" y="210" width="60" height="80" as="geometry"/>
        </mxCell>
        <mxCell id="D-7F8pWzaV691JAyFjle-18" value="Apple" style="shape=cylinder;whiteSpace=wrap;html=1;boundedLbl=1;backgroundOutline=1;" parent="Xo2dGVH3GghoSWU75Hx_-1" vertex="1">
          <mxGeometry x="205" y="210" width="60" height="80" as="geometry"/>
        </mxCell>
        <mxCell id="D-7F8pWzaV691JAyFjle-19" value="Admob" style="shape=cylinder;whiteSpace=wrap;html=1;boundedLbl=1;backgroundOutline=1;" parent="Xo2dGVH3GghoSWU75Hx_-1" vertex="1">
          <mxGeometry x="660" y="220" width="60" height="80" as="geometry"/>
        </mxCell>
        <mxCell id="D-7F8pWzaV691JAyFjle-20" value="FB" style="shape=cylinder;whiteSpace=wrap;html=1;boundedLbl=1;backgroundOutline=1;" parent="Xo2dGVH3GghoSWU75Hx_-1" vertex="1">
          <mxGeometry x="740" y="220" width="60" height="80" as="geometry"/>
        </mxCell>
        <mxCell id="D-7F8pWzaV691JAyFjle-27" value="激活成功，获取用户vip，社交登录等信息" style="rounded=0;whiteSpace=wrap;html=1;" parent="Xo2dGVH3GghoSWU75Hx_-1" vertex="1">
          <mxGeometry x="320" y="220" width="120" height="60" as="geometry"/>
        </mxCell>
        <mxCell id="D-7F8pWzaV691JAyFjle-33" value="解析列表，分国家城市组合并通过抽样测试，进行排序" style="rounded=0;whiteSpace=wrap;html=1;" parent="Xo2dGVH3GghoSWU75Hx_-1" vertex="1">
          <mxGeometry x="480" y="220" width="120" height="60" as="geometry"/>
        </mxCell>
      </root>
    </mxGraphModel>
  </diagram>
  <diagram id="5QmDyHSkPb0sDuAm5b_-" name="第 3 页">
    <mxGraphModel dx="898" dy="639" grid="1" gridSize="10" guides="1" tooltips="1" connect="1" arrows="1" fold="1" page="1" pageScale="1" pageWidth="827" pageHeight="1169" math="0" shadow="0">
      <root>
        <mxCell id="-w5HC7aXwWtPqVYdT9r3-0"/>
        <mxCell id="-w5HC7aXwWtPqVYdT9r3-1" parent="-w5HC7aXwWtPqVYdT9r3-0"/>
        <mxCell id="-w5HC7aXwWtPqVYdT9r3-14" style="edgeStyle=orthogonalEdgeStyle;rounded=0;orthogonalLoop=1;jettySize=auto;html=1;" parent="-w5HC7aXwWtPqVYdT9r3-1" source="-w5HC7aXwWtPqVYdT9r3-2" target="-w5HC7aXwWtPqVYdT9r3-4" edge="1">
          <mxGeometry relative="1" as="geometry">
            <mxPoint x="389.7777777777778" y="130" as="targetPoint"/>
          </mxGeometry>
        </mxCell>
        <mxCell id="-w5HC7aXwWtPqVYdT9r3-2" value="场景触发" style="ellipse;whiteSpace=wrap;html=1;fillColor=#fad7ac;strokeColor=#b46504;" parent="-w5HC7aXwWtPqVYdT9r3-1" vertex="1">
          <mxGeometry x="330" y="20" width="120" height="80" as="geometry"/>
        </mxCell>
        <mxCell id="-w5HC7aXwWtPqVYdT9r3-8" value="展示" style="edgeStyle=orthogonalEdgeStyle;rounded=0;orthogonalLoop=1;jettySize=auto;html=1;entryX=0.5;entryY=0;entryDx=0;entryDy=0;" parent="-w5HC7aXwWtPqVYdT9r3-1" source="-w5HC7aXwWtPqVYdT9r3-4" target="-w5HC7aXwWtPqVYdT9r3-9" edge="1">
          <mxGeometry relative="1" as="geometry">
            <mxPoint x="550" y="260" as="targetPoint"/>
          </mxGeometry>
        </mxCell>
        <mxCell id="-w5HC7aXwWtPqVYdT9r3-4" value="加载场景还是展示场景" style="rhombus;whiteSpace=wrap;html=1;" parent="-w5HC7aXwWtPqVYdT9r3-1" vertex="1">
          <mxGeometry x="317.5" y="220" width="145" height="80" as="geometry"/>
        </mxCell>
        <mxCell id="sqeVo6XLEEJekNf7utPd-0" style="edgeStyle=orthogonalEdgeStyle;rounded=0;orthogonalLoop=1;jettySize=auto;html=1;entryX=0.5;entryY=0;entryDx=0;entryDy=0;" parent="-w5HC7aXwWtPqVYdT9r3-1" source="-w5HC7aXwWtPqVYdT9r3-6" target="sqeVo6XLEEJekNf7utPd-1" edge="1">
          <mxGeometry relative="1" as="geometry">
            <mxPoint x="240" y="400" as="targetPoint"/>
          </mxGeometry>
        </mxCell>
        <mxCell id="-w5HC7aXwWtPqVYdT9r3-6" value="取出下一梯队广告集合，并行拉取" style="rounded=0;whiteSpace=wrap;html=1;" parent="-w5HC7aXwWtPqVYdT9r3-1" vertex="1">
          <mxGeometry x="180" y="300" width="120" height="60" as="geometry"/>
        </mxCell>
        <mxCell id="sqeVo6XLEEJekNf7utPd-9" style="edgeStyle=orthogonalEdgeStyle;rounded=0;orthogonalLoop=1;jettySize=auto;html=1;entryX=0.5;entryY=0;entryDx=0;entryDy=0;" parent="-w5HC7aXwWtPqVYdT9r3-1" source="-w5HC7aXwWtPqVYdT9r3-9" target="sqeVo6XLEEJekNf7utPd-8" edge="1">
          <mxGeometry relative="1" as="geometry"/>
        </mxCell>
        <mxCell id="-w5HC7aXwWtPqVYdT9r3-9" value="进行展示前的拉取" style="rounded=0;whiteSpace=wrap;html=1;" parent="-w5HC7aXwWtPqVYdT9r3-1" vertex="1">
          <mxGeometry x="490" y="300" width="120" height="60" as="geometry"/>
        </mxCell>
        <mxCell id="-w5HC7aXwWtPqVYdT9r3-10" value="加载" style="edgeStyle=orthogonalEdgeStyle;rounded=0;orthogonalLoop=1;jettySize=auto;html=1;entryX=0.5;entryY=0;entryDx=0;entryDy=0;" parent="-w5HC7aXwWtPqVYdT9r3-1" source="-w5HC7aXwWtPqVYdT9r3-4" target="-w5HC7aXwWtPqVYdT9r3-6" edge="1">
          <mxGeometry relative="1" as="geometry">
            <mxPoint x="290" y="260" as="targetPoint"/>
            <mxPoint x="317.5" y="260" as="sourcePoint"/>
            <Array as="points"/>
          </mxGeometry>
        </mxCell>
        <mxCell id="sqeVo6XLEEJekNf7utPd-3" style="edgeStyle=orthogonalEdgeStyle;rounded=0;orthogonalLoop=1;jettySize=auto;html=1;entryX=0.5;entryY=0;entryDx=0;entryDy=0;" parent="-w5HC7aXwWtPqVYdT9r3-1" source="sqeVo6XLEEJekNf7utPd-1" target="sqeVo6XLEEJekNf7utPd-13" edge="1">
          <mxGeometry relative="1" as="geometry">
            <mxPoint x="402.5" y="584" as="targetPoint"/>
            <Array as="points">
              <mxPoint x="240" y="630"/>
              <mxPoint x="403" y="630"/>
            </Array>
          </mxGeometry>
        </mxCell>
        <mxCell id="sqeVo6XLEEJekNf7utPd-4" value="否&lt;br&gt;" style="text;html=1;align=center;verticalAlign=middle;resizable=0;points=[];;labelBackgroundColor=#ffffff;" parent="sqeVo6XLEEJekNf7utPd-3" vertex="1" connectable="0">
          <mxGeometry x="-0.6031" y="1" relative="1" as="geometry">
            <mxPoint x="-1" y="-21" as="offset"/>
          </mxGeometry>
        </mxCell>
        <mxCell id="sqeVo6XLEEJekNf7utPd-6" style="edgeStyle=orthogonalEdgeStyle;rounded=0;orthogonalLoop=1;jettySize=auto;html=1;entryX=0;entryY=0.5;entryDx=0;entryDy=0;" parent="-w5HC7aXwWtPqVYdT9r3-1" source="sqeVo6XLEEJekNf7utPd-1" target="-w5HC7aXwWtPqVYdT9r3-6" edge="1">
          <mxGeometry relative="1" as="geometry">
            <Array as="points">
              <mxPoint x="120" y="486"/>
              <mxPoint x="120" y="330"/>
            </Array>
          </mxGeometry>
        </mxCell>
        <mxCell id="sqeVo6XLEEJekNf7utPd-7" value="是" style="text;html=1;align=center;verticalAlign=middle;resizable=0;points=[];;labelBackgroundColor=#ffffff;" parent="sqeVo6XLEEJekNf7utPd-6" vertex="1" connectable="0">
          <mxGeometry x="-0.3966" y="-40" relative="1" as="geometry">
            <mxPoint as="offset"/>
          </mxGeometry>
        </mxCell>
        <mxCell id="sqeVo6XLEEJekNf7utPd-1" value="拉取成功或者超时，且是否有第二梯队" style="rhombus;whiteSpace=wrap;html=1;" parent="-w5HC7aXwWtPqVYdT9r3-1" vertex="1">
          <mxGeometry x="180" y="440" width="120" height="90" as="geometry"/>
        </mxCell>
        <mxCell id="sqeVo6XLEEJekNf7utPd-10" style="edgeStyle=orthogonalEdgeStyle;rounded=0;orthogonalLoop=1;jettySize=auto;html=1;entryX=0.5;entryY=0;entryDx=0;entryDy=0;" parent="-w5HC7aXwWtPqVYdT9r3-1" source="RTy4yAANPBuRmIaBjoMZ-0" target="sqeVo6XLEEJekNf7utPd-13" edge="1">
          <mxGeometry relative="1" as="geometry">
            <mxPoint x="403" y="584" as="targetPoint"/>
            <Array as="points">
              <mxPoint x="550" y="630"/>
              <mxPoint x="403" y="630"/>
            </Array>
          </mxGeometry>
        </mxCell>
        <mxCell id="RTy4yAANPBuRmIaBjoMZ-2" value="是" style="text;html=1;align=center;verticalAlign=middle;resizable=0;points=[];;labelBackgroundColor=#ffffff;" parent="sqeVo6XLEEJekNf7utPd-10" vertex="1" connectable="0">
          <mxGeometry x="-0.7604" y="-3" relative="1" as="geometry">
            <mxPoint as="offset"/>
          </mxGeometry>
        </mxCell>
        <mxCell id="sqeVo6XLEEJekNf7utPd-8" value="尝试展示加载成功广告" style="rounded=0;whiteSpace=wrap;html=1;" parent="-w5HC7aXwWtPqVYdT9r3-1" vertex="1">
          <mxGeometry x="485" y="410" width="130" height="60" as="geometry"/>
        </mxCell>
        <mxCell id="sqeVo6XLEEJekNf7utPd-13" value="结束" style="rounded=1;whiteSpace=wrap;html=1;" parent="-w5HC7aXwWtPqVYdT9r3-1" vertex="1">
          <mxGeometry x="342.5" y="650" width="120" height="60" as="geometry"/>
        </mxCell>
        <mxCell id="RTy4yAANPBuRmIaBjoMZ-3" style="edgeStyle=orthogonalEdgeStyle;rounded=0;orthogonalLoop=1;jettySize=auto;html=1;entryX=0;entryY=0.5;entryDx=0;entryDy=0;" parent="-w5HC7aXwWtPqVYdT9r3-1" source="RTy4yAANPBuRmIaBjoMZ-0" target="sqeVo6XLEEJekNf7utPd-8" edge="1">
          <mxGeometry relative="1" as="geometry">
            <mxPoint x="460" y="450" as="targetPoint"/>
            <Array as="points">
              <mxPoint x="430" y="540"/>
              <mxPoint x="430" y="440"/>
            </Array>
          </mxGeometry>
        </mxCell>
        <mxCell id="RTy4yAANPBuRmIaBjoMZ-4" value="否" style="text;html=1;align=center;verticalAlign=middle;resizable=0;points=[];;labelBackgroundColor=#ffffff;" parent="RTy4yAANPBuRmIaBjoMZ-3" vertex="1" connectable="0">
          <mxGeometry x="-0.6583" y="-3" relative="1" as="geometry">
            <mxPoint as="offset"/>
          </mxGeometry>
        </mxCell>
        <mxCell id="RTy4yAANPBuRmIaBjoMZ-0" value="展示超时" style="rhombus;whiteSpace=wrap;html=1;" parent="-w5HC7aXwWtPqVYdT9r3-1" vertex="1">
          <mxGeometry x="510" y="500" width="80" height="80" as="geometry"/>
        </mxCell>
        <mxCell id="RTy4yAANPBuRmIaBjoMZ-1" style="edgeStyle=orthogonalEdgeStyle;rounded=0;orthogonalLoop=1;jettySize=auto;html=1;entryX=0.5;entryY=0;entryDx=0;entryDy=0;" parent="-w5HC7aXwWtPqVYdT9r3-1" source="sqeVo6XLEEJekNf7utPd-8" target="RTy4yAANPBuRmIaBjoMZ-0" edge="1">
          <mxGeometry relative="1" as="geometry">
            <mxPoint x="550" y="470" as="sourcePoint"/>
            <mxPoint x="403" y="584" as="targetPoint"/>
            <Array as="points">
              <mxPoint x="550" y="500"/>
            </Array>
          </mxGeometry>
        </mxCell>
        <mxCell id="RTy4yAANPBuRmIaBjoMZ-6" value="广告配置" style="shape=cylinder;whiteSpace=wrap;html=1;boundedLbl=1;backgroundOutline=1;" parent="-w5HC7aXwWtPqVYdT9r3-1" vertex="1">
          <mxGeometry x="540" y="121" width="60" height="80" as="geometry"/>
        </mxCell>
        <mxCell id="RTy4yAANPBuRmIaBjoMZ-11" value="" style="endArrow=classic;html=1;entryX=0;entryY=0.5;entryDx=0;entryDy=0;" parent="-w5HC7aXwWtPqVYdT9r3-1" target="RTy4yAANPBuRmIaBjoMZ-6" edge="1">
          <mxGeometry width="50" height="50" relative="1" as="geometry">
            <mxPoint x="390" y="161" as="sourcePoint"/>
            <mxPoint x="470" y="130" as="targetPoint"/>
            <Array as="points">
              <mxPoint x="480" y="161"/>
            </Array>
          </mxGeometry>
        </mxCell>
        <mxCell id="RTy4yAANPBuRmIaBjoMZ-12" value="读取配置" style="text;html=1;align=center;verticalAlign=middle;resizable=0;points=[];;autosize=1;" parent="-w5HC7aXwWtPqVYdT9r3-1" vertex="1">
          <mxGeometry x="450" y="141" width="60" height="20" as="geometry"/>
        </mxCell>
        <mxCell id="RTy4yAANPBuRmIaBjoMZ-15" value="" style="endArrow=classic;html=1;" parent="-w5HC7aXwWtPqVYdT9r3-1" edge="1">
          <mxGeometry width="50" height="50" relative="1" as="geometry">
            <mxPoint x="540" y="171" as="sourcePoint"/>
            <mxPoint x="390" y="171" as="targetPoint"/>
            <Array as="points">
              <mxPoint x="490" y="171"/>
            </Array>
          </mxGeometry>
        </mxCell>
      </root>
    </mxGraphModel>
  </diagram>
  <diagram id="CBbrLlpRFAguAJqraq3N" name="第 4 页">
    <mxGraphModel dx="898" dy="639" grid="1" gridSize="10" guides="1" tooltips="1" connect="1" arrows="1" fold="1" page="1" pageScale="1" pageWidth="827" pageHeight="1169" math="0" shadow="0">
      <root>
        <mxCell id="HogylE0lz__pfim62II_-0"/>
        <mxCell id="HogylE0lz__pfim62II_-1" parent="HogylE0lz__pfim62II_-0"/>
        <mxCell id="mB_jtX6Xph1V8ISN6PDY-0" style="edgeStyle=orthogonalEdgeStyle;rounded=0;orthogonalLoop=1;jettySize=auto;html=1;entryX=0.5;entryY=0;entryDx=0;entryDy=0;" parent="HogylE0lz__pfim62II_-1" source="mB_jtX6Xph1V8ISN6PDY-1" target="mB_jtX6Xph1V8ISN6PDY-3" edge="1">
          <mxGeometry relative="1" as="geometry"/>
        </mxCell>
        <mxCell id="mB_jtX6Xph1V8ISN6PDY-1" value="&lt;span style=&quot;font-size: 20px&quot;&gt;&lt;b&gt;Connect&lt;/b&gt;&lt;/span&gt;" style="strokeWidth=2;html=1;shape=mxgraph.flowchart.start_1;whiteSpace=wrap;" parent="HogylE0lz__pfim62II_-1" vertex="1">
          <mxGeometry x="300" y="20" width="160" height="60" as="geometry"/>
        </mxCell>
        <mxCell id="mB_jtX6Xph1V8ISN6PDY-2" value="" style="edgeStyle=orthogonalEdgeStyle;rounded=0;orthogonalLoop=1;jettySize=auto;html=1;" parent="HogylE0lz__pfim62II_-1" source="mB_jtX6Xph1V8ISN6PDY-3" target="mB_jtX6Xph1V8ISN6PDY-5" edge="1">
          <mxGeometry relative="1" as="geometry"/>
        </mxCell>
        <mxCell id="mB_jtX6Xph1V8ISN6PDY-3" value="获取推荐服务器组合" style="rounded=0;whiteSpace=wrap;html=1;" parent="HogylE0lz__pfim62II_-1" vertex="1">
          <mxGeometry x="320" y="110" width="120" height="50" as="geometry"/>
        </mxCell>
        <mxCell id="mB_jtX6Xph1V8ISN6PDY-4" style="edgeStyle=orthogonalEdgeStyle;rounded=0;orthogonalLoop=1;jettySize=auto;html=1;entryX=0.5;entryY=0;entryDx=0;entryDy=0;" parent="HogylE0lz__pfim62II_-1" source="mB_jtX6Xph1V8ISN6PDY-5" target="mB_jtX6Xph1V8ISN6PDY-7" edge="1">
          <mxGeometry relative="1" as="geometry"/>
        </mxCell>
        <mxCell id="mB_jtX6Xph1V8ISN6PDY-5" value="根据配置的协议优先级，对该组合进行排序" style="rounded=0;whiteSpace=wrap;html=1;" parent="HogylE0lz__pfim62II_-1" vertex="1">
          <mxGeometry x="320" y="195" width="120" height="70" as="geometry"/>
        </mxCell>
        <mxCell id="mB_jtX6Xph1V8ISN6PDY-6" style="edgeStyle=orthogonalEdgeStyle;rounded=0;orthogonalLoop=1;jettySize=auto;html=1;entryX=0.5;entryY=0;entryDx=0;entryDy=0;" parent="HogylE0lz__pfim62II_-1" source="mB_jtX6Xph1V8ISN6PDY-7" target="mB_jtX6Xph1V8ISN6PDY-12" edge="1">
          <mxGeometry relative="1" as="geometry"/>
        </mxCell>
        <mxCell id="mB_jtX6Xph1V8ISN6PDY-7" value="拿第一个服务器开始尝试连接" style="rounded=0;whiteSpace=wrap;html=1;" parent="HogylE0lz__pfim62II_-1" vertex="1">
          <mxGeometry x="320" y="300" width="120" height="70" as="geometry"/>
        </mxCell>
        <mxCell id="mB_jtX6Xph1V8ISN6PDY-8" style="edgeStyle=orthogonalEdgeStyle;rounded=0;orthogonalLoop=1;jettySize=auto;html=1;entryX=0;entryY=0.5;entryDx=0;entryDy=0;" parent="HogylE0lz__pfim62II_-1" source="mB_jtX6Xph1V8ISN6PDY-12" target="mB_jtX6Xph1V8ISN6PDY-7" edge="1">
          <mxGeometry relative="1" as="geometry">
            <Array as="points">
              <mxPoint x="160" y="480"/>
              <mxPoint x="160" y="335"/>
            </Array>
          </mxGeometry>
        </mxCell>
        <mxCell id="mB_jtX6Xph1V8ISN6PDY-9" value="否" style="text;html=1;align=center;verticalAlign=middle;resizable=0;points=[];;labelBackgroundColor=#ffffff;" parent="mB_jtX6Xph1V8ISN6PDY-8" vertex="1" connectable="0">
          <mxGeometry x="-0.6148" y="-2" relative="1" as="geometry">
            <mxPoint as="offset"/>
          </mxGeometry>
        </mxCell>
        <mxCell id="mB_jtX6Xph1V8ISN6PDY-10" style="edgeStyle=orthogonalEdgeStyle;rounded=0;orthogonalLoop=1;jettySize=auto;html=1;" parent="HogylE0lz__pfim62II_-1" source="mB_jtX6Xph1V8ISN6PDY-12" edge="1">
          <mxGeometry relative="1" as="geometry">
            <mxPoint x="380" y="570" as="targetPoint"/>
          </mxGeometry>
        </mxCell>
        <mxCell id="mB_jtX6Xph1V8ISN6PDY-11" value="是" style="text;html=1;align=center;verticalAlign=middle;resizable=0;points=[];;labelBackgroundColor=#ffffff;" parent="mB_jtX6Xph1V8ISN6PDY-10" vertex="1" connectable="0">
          <mxGeometry x="-0.6" y="2" relative="1" as="geometry">
            <mxPoint as="offset"/>
          </mxGeometry>
        </mxCell>
        <mxCell id="mB_jtX6Xph1V8ISN6PDY-12" value="连接成功" style="rhombus;whiteSpace=wrap;html=1;" parent="HogylE0lz__pfim62II_-1" vertex="1">
          <mxGeometry x="307.5" y="450" width="145" height="60" as="geometry"/>
        </mxCell>
        <mxCell id="mB_jtX6Xph1V8ISN6PDY-13" value="当前服务器放到队尾，上报该连接结果" style="rounded=0;whiteSpace=wrap;html=1;" parent="HogylE0lz__pfim62II_-1" vertex="1">
          <mxGeometry x="90" y="380" width="130" height="60" as="geometry"/>
        </mxCell>
        <mxCell id="mB_jtX6Xph1V8ISN6PDY-14" value="上报连接结果，通知APP连接已成功" style="rounded=0;whiteSpace=wrap;html=1;" parent="HogylE0lz__pfim62II_-1" vertex="1">
          <mxGeometry x="320" y="570" width="120" height="60" as="geometry"/>
        </mxCell>
      </root>
    </mxGraphModel>
  </diagram>
</mxfile>
